<?xml version="1.0" encoding="utf-8"?>
<!-- Generator: Adobe Illustrator 17.1.0, SVG Export Plug-In . SVG Version: 6.00 Build 0)  -->
<!DOCTYPE svg PUBLIC "-//W3C//DTD SVG 1.1//EN" "http://www.w3.org/Graphics/SVG/1.1/DTD/svg11.dtd">
<svg version="1.1" id="Layer_1" xmlns="http://www.w3.org/2000/svg" xmlns:xlink="http://www.w3.org/1999/xlink" x="0px" y="0px"
	 viewBox="0 0 295 164.333" enable-background="new 0 0 295 164.333" xml:space="preserve">
<g>
	<g id="big-rect">
		<polygon fill="#182A56" points="156.126,126.463 74.69,79.494 153.524,36.267 234.851,79.494 		"/>
	</g>
	<g>
		<polygon fill="#80A7BC" points="271.093,88.428 253.082,78.944 268.555,69.624 286.543,78.944 		"/>
	</g>
	<g>
		<polygon fill="#80A7BC" points="108.911,153.484 72.524,131.466 109.454,110.27 145.851,131.466 		"/>
	</g>
	<g>
		<polygon fill="#33588E" points="189.985,139.325 170.678,128.254 188.711,117.396 208.005,128.254 		"/>
	</g>
	<g>
		<polygon fill="#33588E" points="242.546,73.192 218.601,60.587 239.795,48.272 263.708,60.587 		"/>
	</g>
	<g>
		<polygon fill="#80A7BC" points="33.059,117.698 10.686,104.038 35.232,90.705 57.631,104.038 		"/>
	</g>
	<g>
		<g>
			<polygon fill="#E34497" points="70.953,71.255 49.052,58.694 72.164,46.424 94.079,58.694 			"/>
		</g>
	</g>
	<g>
		<polygon fill="#33588E" points="83.706,117.401 65.216,106.417 84.477,95.645 102.974,106.417 		"/>
	</g>
	<g>
		<polygon fill="#33588E" points="131.983,39.301 120.063,32.876 131.879,26.53 143.798,32.876 		"/>
	</g>
	<g>
		<g>
			<polygon fill="#E34497" points="154.406,152.512 141.05,144.624 153.988,136.844 167.34,144.624 			"/>
		</g>
	</g>
	<g>
		<g>
			<polygon fill="#E34497" points="269.68,55.467 256.717,48.842 267.866,42.3 280.818,48.842 			"/>
		</g>
	</g>
	<g>
		<polygon fill="#80A7BC" points="153.313,27.963 135.594,18.62 152.778,9.444 170.493,18.62 		"/>
	</g>
	<g>
		<polygon fill="#33588E" points="65.197,98.699 53.038,91.526 65.95,84.445 78.114,91.526 		"/>
	</g>
	<g>
		<polygon fill="#80A7BC" points="200.635,51.245 162.929,31.393 197.789,12.273 235.442,31.393 		"/>
	</g>
	<g>
		<polygon fill="#E34497" points="247.724,123.262 212.03,103.649 243.48,84.705 279.1,103.649 		"/>
	</g>
</g>
</svg>
